HIERARCHY
ROOT Hips
{
    OFFSET 0.000000 0.000000 0.000000
    CHANNELS 6 Xposition Yposition Zposition Zrotation Xrotation Yrotation
    JOINT Spine
    {
        OFFSET -0.000000 0.083210 0.000000
        CHANNELS 3 Zrotation Xrotation Yrotation
        JOINT Spine1
        {
            OFFSET -0.000000 0.256334 0.000000
            CHANNELS 3 Zrotation Xrotation Yrotation
            JOINT Neck
            {
                OFFSET -0.000000 0.275576 0.002912
                CHANNELS 3 Zrotation Xrotation Yrotation
                JOINT Head
                {
                    OFFSET -0.000000 0.157287 0.020295
                    CHANNELS 3 Zrotation Xrotation Yrotation
                    End Site
                    {
                        OFFSET -0.000000 0.202951 0.000000
                    }
                }
            }
            JOINT LeftShoulder
            {
                OFFSET 0.041044 0.235234 -0.000041
                CHANNELS 3 Zrotation Xrotation Yrotation
                JOINT LeftArm
                {
                    OFFSET 0.117964 0.000000 0.000000
                    CHANNELS 3 Zrotation Xrotation Yrotation
                    JOINT LeftForeArm
                    {
                        OFFSET 0.291248 0.000000 0.000000
                        CHANNELS 3 Zrotation Xrotation Yrotation
                        JOINT LeftHand
                        {
                            OFFSET 0.245673 0.000000 0.000000
                            CHANNELS 3 Zrotation Xrotation Yrotation
                            End Site
                            {
                                OFFSET 0.152213 0.000000 0.000000
                            }
                        }
                    }
                }
            }
            JOINT RightShoulder
            {
                OFFSET -0.040052 0.235234 -0.000041
                CHANNELS 3 Zrotation Xrotation Yrotation
                JOINT RightArm
                {
                    OFFSET -0.117964 0.000000 0.000000
                    CHANNELS 3 Zrotation Xrotation Yrotation
                    JOINT RightForeArm
                    {
                        OFFSET -0.291248 0.000000 0.000000
                        CHANNELS 3 Zrotation Xrotation Yrotation
                        JOINT RightHand
                        {
                            OFFSET -0.245673 0.000000 0.000000
                            CHANNELS 3 Zrotation Xrotation Yrotation
                            End Site
                            {
                                OFFSET -0.152213 0.000000 0.000000
                            }
                        }
                    }
                }
            }
        }
    }
    JOINT LeftUpLeg
    {
        OFFSET 0.101475 0.000000 0.000000
        CHANNELS 3 Zrotation Xrotation Yrotation
        JOINT LeftLeg
        {
            OFFSET -0.000000 -0.446535 0.000000
            CHANNELS 3 Zrotation Xrotation Yrotation
            JOINT LeftFoot
            {
                OFFSET -0.000000 -0.400037 0.000000
                CHANNELS 3 Zrotation Xrotation Yrotation
                JOINT LeftToeBase
                {
                    OFFSET -0.000000 -0.065959 0.152213
                    CHANNELS 3 Zrotation Xrotation Yrotation
                    End Site
                    {
                        OFFSET -0.000000 0.000000 0.040590
                    }
                }
            }
        }
    }
    JOINT RightUpLeg
    {
        OFFSET -0.101475 0.000000 0.000000
        CHANNELS 3 Zrotation Xrotation Yrotation
        JOINT RightLeg
        {
            OFFSET -0.000000 -0.446535 0.000000
            CHANNELS 3 Zrotation Xrotation Yrotation
            JOINT RightFoot
            {
                OFFSET -0.000000 -0.400037 0.000000
                CHANNELS 3 Zrotation Xrotation Yrotation
                JOINT RightToeBase
                {
                    OFFSET -0.000000 -0.065959 0.152213
                    CHANNELS 3 Zrotation Xrotation Yrotation
                    End Site
                    {
                        OFFSET -0.000000 0.000000 0.040590
                    }
                }
            }
        }
    }
}
MOTION
Frames:    14
Frame Time:    0.008333
0.602437    0.897319    0.203138    6.142597    2.259224    -88.532066    -0.767081    14.747539    4.014024    3.579720    7.715708    1.064351    6.902050    11.060587    -4.121270    -0.368686    8.603189    -2.590397    0.273776    7.604754    -26.886557    -15.169095    47.802544    -69.398041    11.842635    -36.092911    -18.297909    -5.628454    -35.107708    14.218327    4.244735    9.052353    40.745884    29.135275    34.081223    40.189648    -15.954754    -46.326080    -1.492500    39.039387    -42.991299    13.745644    20.247093    -25.445332    9.774642    -6.384209    40.092770    5.781653    -10.367816    -13.787455    -0.846962    0.144672    2.119686    -1.388433    -13.538772    -28.192570    -4.880148    6.381467    43.815422    7.134876    8.317258    -18.891674    -13.745425    0.170897    -2.765661    3.435893    
0.602229    0.897269    0.203142    6.114964    2.274314    -88.493698    -0.747830    14.747205    3.982599    3.583298    7.726772    1.054084    6.864469    11.076148    -4.110498    -0.361174    8.612869    -2.588494    0.297183    7.610806    -26.889851    -15.280737    47.818932    -69.315338    11.882000    -36.135620    -18.317152    -5.642519    -35.145660    14.222914    4.236754    9.072602    40.772682    29.130514    34.105019    40.198952    -15.944761    -46.450886    -1.453900    38.633369    -43.218056    13.520749    20.246790    -25.438271    9.734755    -6.385117    40.124611    5.780079    -10.367559    -13.800697    -0.851915    0.143940    2.108474    -1.382689    -13.544003    -28.149006    -4.923693    6.381993    43.834808    7.180066    8.308478    -18.904802    -13.782856    0.171945    -2.785406    3.445035    
0.602121    0.897228    0.203133    6.103904    2.281881    -88.491692    -0.749496    14.747308    3.979627    3.585723    7.721976    1.052962    6.831120    11.082301    -4.097381    -0.353931    8.636668    -2.583697    0.325791    7.615631    -26.891302    -15.390786    47.825504    -69.236359    11.915006    -36.162987    -18.338657    -5.626155    -35.166397    14.247988    4.235158    9.081762    40.791782    29.134970    34.131870    40.204056    -15.994199    -46.516090    -1.495410    38.704563    -43.262619    13.606210    20.255642    -25.435978    9.725825    -6.390626    40.152378    5.782943    -10.371771    -13.813224    -0.844724    0.144261    2.106787    -1.385964    -13.539726    -28.143400    -4.931554    6.386755    43.859230    7.188000    8.303360    -18.908037    -13.788815    0.172618    -2.803011    3.447916    
0.602006    0.897196    0.203117    6.094820    2.289847    -88.491577    -0.752543    14.743415    3.976397    3.589757    7.718814    1.051619    6.800685    11.086597    -4.083342    -0.352312    8.661994    -2.576241    0.362023    7.618666    -26.894190    -15.505735    47.819210    -69.160683    11.939758    -36.182030    -18.351099    -5.613295    -35.181084    14.275883    4.227445    9.094105    40.815125    29.142443    34.156479    40.209324    -16.058636    -46.591522    -1.541842    38.804844    -43.309292    13.716823    20.266975    -25.430635    9.717704    -6.400930    40.173428    5.801888    -10.377681    -13.823343    -0.851719    0.144338    2.097851    -1.387734    -13.533371    -28.136566    -4.938977    6.389096    43.878197    7.200428    8.298739    -18.914009    -13.795643    0.172942    -2.806822    3.452085    
0.601986    0.897163    0.203088    6.098728    2.287559    -88.524536    -0.780874    14.744650    4.000866    3.597962    7.693137    1.058788    6.766603    11.101217    -4.068358    -0.338283    8.675570    -2.570595    0.397627    7.614343    -26.894421    -15.605355    47.814400    -69.095161    11.953888    -36.186169    -18.361370    -5.626778    -35.184299    14.285652    4.220337    9.100078    40.839645    29.170555    34.175064    40.200001    -16.122103    -46.664349    -1.592302    38.945435    -43.342876    13.852571    20.281084    -25.425659    9.754154    -6.397861    40.189541    5.805119    -10.378412    -13.832990    -0.855186    0.144717    2.105511    -1.390489    -13.520243    -28.162401    -4.910678    6.389362    43.901642    7.209110    8.292710    -18.919506    -13.800248    0.172753    -2.810532    3.446095    
0.601875    0.897137    0.203072    6.091525    2.286350    -88.528793    -0.795466    14.740671    3.999815    3.602032    7.684536    1.057804    6.740355    11.112763    -4.050450    -0.332656    8.693542    -2.558576    0.431565    7.601079    -26.889339    -15.673721    47.816051    -69.052795    11.963936    -36.186024    -18.361254    -5.653026    -35.185463    14.284532    4.215835    9.115535    40.861610    29.181471    34.186115    40.202503    -16.184586    -46.742920    -1.643963    39.069557    -43.388031    13.973660    20.279676    -25.413576    9.747328    -6.399300    40.197777    5.830722    -10.386674    -13.842783    -0.869686    0.145452    2.109316    -1.397111    -13.522724    -28.153557    -4.912975    6.395925    43.912178    7.213125    8.290358    -18.926430    -13.799194    0.172730    -2.817543    3.441447    
0.601766    0.897123    0.203051    6.087542    2.285636    -88.536003    -0.814417    14.733771    4.003975    3.613209    7.674249    1.057932    6.708114    11.124453    -4.033730    -0.319045    8.714218    -2.550784    0.463007    7.585484    -26.888834    -15.722281    47.821648    -69.021011    11.978076    -36.186195    -18.356489    -5.684532    -35.187801    14.293441    4.203973    9.130412    40.880745    29.190178    34.202999    40.209381    -16.257307    -46.821354    -1.702814    39.224411    -43.427887    14.105392    20.281889    -25.401621    9.751098    -6.398367    40.203312    5.830357    -10.387835    -13.852608    -0.870393    0.145204    2.105913    -1.395128    -13.522432    -28.146925    -4.910284    6.402578    43.917179    7.209497    8.286913    -18.928526    -13.792529    0.173009    -2.826253    3.441801    
0.601662    0.897120    0.203023    6.086508    2.290020    -88.543526    -0.827422    14.722202    4.010122    3.621943    7.666285    1.059155    6.688774    11.133129    -4.019839    -0.319361    8.729561    -2.540305    0.500488    7.575020    -26.888981    -15.751538    47.813869    -69.006325    11.981551    -36.184044    -18.346611    -5.724318    -35.189945    14.290492    4.190557    9.140950    40.901207    29.210157    34.208134    40.206100    -16.316687    -46.895027    -1.756108    39.425503    -43.446823    14.275743    20.290709    -25.392500    9.757853    -6.396220    40.208069    5.835968    -10.400430    -13.859462    -0.879448    0.145808    2.107057    -1.400791    -13.515502    -28.141834    -4.899498    6.416683    43.917141    7.195462    8.278156    -18.926838    -13.791704    0.173286    -2.831651    3.444076    
0.601568    0.897120    0.202994    6.084369    2.293061    -88.552238    -0.843933    14.716827    4.019262    3.632703    7.648894    1.061334    6.666349    11.147609    -4.007708    -0.311733    8.737473    -2.533672    0.528897    7.549216    -26.892252    -15.751374    47.832237    -69.008156    11.981064    -36.196465    -18.336418    -5.709099    -35.202713    14.309309    4.181809    9.152215    40.914795    29.238596    34.210270    40.190315    -16.363556    -46.967487    -1.787276    39.638714    -43.460033    14.447131    20.297028    -25.382696    9.767496    -6.389083    40.212612    5.825758    -10.403468    -13.867729    -0.875865    0.145619    2.107398    -1.398939    -13.511387    -28.137421    -4.877649    6.442714    43.916973    7.173736    8.277337    -18.927551    -13.793171    0.173593    -2.836055    3.447553    
0.601482    0.897124    0.202959    6.083019    2.298786    -88.561516    -0.856610    14.710336    4.029359    3.641682    7.631852    1.064099    6.645172    11.161614    -3.993885    -0.301519    8.742335    -2.525544    0.560826    7.524938    -26.898613    -15.720059    47.858608    -69.030754    11.996100    -36.223141    -18.322931    -5.706143    -35.229153    14.323479    4.176943    9.162104    40.926968    29.255438    34.222008    40.178776    -16.415106    -47.044247    -1.827964    39.869766    -43.471752    14.636474    20.306782    -25.373281    9.774721    -6.383629    40.215748    5.819255    -10.407640    -13.872822    -0.874317    0.145353    2.105244    -1.396640    -13.502821    -28.134047    -4.867555    6.454504    43.916588    7.162396    8.277884    -18.918324    -13.786805    0.173900    -2.851343    3.444522    
0.601397    0.897140    0.202934    6.082787    2.306312    -88.570183    -0.867213    14.703199    4.038287    3.654715    7.614729    1.066306    6.620755    11.173248    -3.984745    -0.300012    8.744942    -2.521386    0.582790    7.503479    -26.901464    -15.669416    47.885033    -69.061264    12.001371    -36.257149    -18.321444    -5.692999    -35.262817    14.350795    4.166667    9.173745    40.938328    29.269756    34.229782    40.169144    -16.463251    -47.122272    -1.868786    40.118965    -43.477238    14.844518    20.316631    -25.365828    9.772576    -6.383862    40.218662    5.823132    -10.412203    -13.878757    -0.871956    0.144920    2.105632    -1.392435    -13.494211    -28.130758    -4.854091    6.472257    43.913055    7.131823    8.283272    -18.907608    -13.769870    0.174158    -2.856350    3.446651    
0.601323    0.897166    0.202912    6.085798    2.311613    -88.579514    -0.876632    14.694983    4.044769    3.660558    7.597247    1.068250    6.600697    11.176106    -3.975860    -0.302919    8.752159    -2.516113    0.612070    7.475600    -26.896296    -15.609720    47.921097    -69.107971    12.011519    -36.300804    -18.317320    -5.680260    -35.305561    14.371313    4.161743    9.171609    40.952808    29.294298    34.249413    40.151093    -16.513407    -47.192738    -1.903773    40.351955    -43.481255    15.030156    20.323059    -25.359285    9.770985    -6.383944    40.215210    5.825606    -10.411255    -13.878719    -0.862937    0.145076    2.098558    -1.394749    -13.488544    -28.130627    -4.845402    6.487725    43.907867    7.108233    8.288156    -18.896664    -13.754807    0.174427    -2.869199    3.444342    
0.601254    0.897198    0.202896    6.088678    2.317542    -88.584473    -0.884002    14.689359    4.048128    3.668814    7.576319    1.069198    6.580923    11.178276    -3.969602    -0.313172    8.757022    -2.511993    0.636871    7.445636    -26.894609    -15.557125    47.960812    -69.142807    12.019954    -36.344124    -18.319275    -5.735075    -35.352951    14.351783    4.158934    9.176964    40.961308    29.308138    34.261158    40.135727    -16.541439    -47.250584    -1.916399    40.511265    -43.486961    15.178081    20.328220    -25.354095    9.758675    -6.390428    40.209301    5.844222    -10.413404    -13.876928    -0.862814    0.144660    2.091627    -1.391551    -13.484595    -28.126486    -4.848942    6.496447    43.898582    7.094977    8.289311    -18.884338    -13.742206    0.174233    -2.871269    3.439298    
0.601199    0.897234    0.202884    6.095280    2.323663    -88.592369    -0.891083    14.680481    4.053376    3.676599    7.558158    1.070665    6.564063    11.170382    -3.962342    -0.327584    8.764661    -2.505913    0.662533    7.428620    -26.895264    -15.484975    47.994411    -69.191956    12.045600    -36.398197    -18.319902    -5.776847    -35.408409    14.347947    4.150400    9.179251    40.970795    29.319334    34.271797    40.126266    -16.571325    -47.295773    -1.929821    40.680019    -43.483078    15.307077    20.333048    -25.351749    9.754090    -6.387290    40.202957    5.859572    -10.420025    -13.873588    -0.869324    0.143964    2.088655    -1.385195    -13.479214    -28.129158    -4.850074    6.503022    43.891796    7.089480    8.289021    -18.872879    -13.732867    0.174633    -2.878996    3.442614    
